<svg width="100" height="32" viewBox="0 0 100 32" fill="none" xmlns="http://www.w3.org/2000/svg">
<path d="M12.5039 10.6565V12.45C12.5039 13.3764 11.3699 13.8403 10.7067 13.1852L9.42535 11.9196L7.09232 9.61518C6.68075 9.20866 6.01332 9.20916 5.60238 9.61629L4.59964 10.6097L3.59388 11.6001C3.1817 12.006 3.1812 12.6653 3.59276 13.0718L5.92579 15.3762L7.20718 16.6419C7.87038 17.2969 7.40067 18.417 6.46277 18.417H4.647H1.34768C0.766256 18.417 0.294922 18.8825 0.294922 19.4568V20.86V22.2616C0.294922 22.8345 0.764017 23.2994 1.344 23.3015L4.81014 23.3134L9.14123 23.3284C9.25963 23.3288 9.3771 23.3489 9.48872 23.3879L9.66216 23.4486C10.1358 23.6149 10.7357 23.9424 11.0515 24.2023C11.3883 24.483 11.825 25.0079 12.0145 25.3614C12.105 25.5338 12.2853 25.6421 12.4819 25.6421H14.9773H17.4726C17.6693 25.6421 17.8495 25.5338 17.9401 25.3614C18.1295 25.0079 18.5663 24.483 18.9031 24.2023C19.2188 23.9424 19.8188 23.6149 20.2924 23.4486L20.4658 23.388C20.5774 23.3489 20.6949 23.3288 20.8133 23.3284L25.1497 23.3134L28.6106 23.3015C29.1905 23.2994 29.6596 22.8345 29.6596 22.2616V20.86V19.4568C29.6596 18.8825 29.1883 18.417 28.6069 18.417H25.3075H23.4918C22.5539 18.417 22.0842 17.2969 22.7474 16.6419L24.0288 15.3762L26.3618 13.0718C26.7734 12.6653 26.7729 12.006 26.3607 11.6001L25.3549 10.6097L24.3522 9.61629C23.9412 9.20916 23.2738 9.20867 22.8622 9.61518L20.5292 11.9196L19.2478 13.1852C18.5846 13.8403 17.4506 13.3764 17.4506 12.45V10.6565V7.39764C17.4506 6.82335 16.9793 6.3578 16.3979 6.3578H14.9773H13.5567C12.9752 6.3578 12.5039 6.82335 12.5039 7.39764V10.6565Z" fill="#01383D"/>
<path d="M38.5661 24V11.8626H41.4781L41.7228 13.8936C42.1144 13.1922 42.6609 12.6293 43.3624 12.2052C44.0638 11.781 44.8958 11.5689 45.8584 11.5689C46.8698 11.5689 47.7263 11.7892 48.4278 12.2296C49.1293 12.6538 49.6676 13.2819 50.0428 14.1139C50.418 14.9459 50.6056 15.9736 50.6056 17.1972V24H47.3266V17.4908C47.3266 16.4794 47.1145 15.7045 46.6904 15.1661C46.2825 14.6278 45.6381 14.3586 44.7572 14.3586C44.2025 14.3586 43.7049 14.4973 43.2645 14.7746C42.824 15.0356 42.4814 15.419 42.2367 15.9247C41.992 16.4141 41.8696 17.0177 41.8696 17.7355V24H38.5661ZM59.398 24.2936C58.2235 24.2936 57.1631 24.0245 56.2169 23.4861C55.287 22.9478 54.5447 22.1973 53.99 21.2348C53.4354 20.2723 53.158 19.1711 53.158 17.9313C53.158 16.6751 53.4354 15.574 53.99 14.6278C54.5447 13.6653 55.2951 12.9148 56.2413 12.3765C57.1875 11.8381 58.2398 11.5689 59.398 11.5689C60.5889 11.5689 61.6493 11.8381 62.5792 12.3765C63.5254 12.9148 64.2758 13.6653 64.8305 14.6278C65.3852 15.574 65.6625 16.6751 65.6625 17.9313C65.6625 19.1875 65.3852 20.2968 64.8305 21.2593C64.2758 22.2055 63.5254 22.9478 62.5792 23.4861C61.633 24.0245 60.5726 24.2936 59.398 24.2936ZM59.398 21.4551C59.9364 21.4551 60.4177 21.3245 60.8418 21.0635C61.266 20.7862 61.6086 20.3865 61.8696 19.8645C62.1469 19.3424 62.2856 18.698 62.2856 17.9313C62.2856 17.1482 62.1551 16.4957 61.894 15.9736C61.633 15.4516 61.2823 15.0601 60.8418 14.7991C60.4177 14.538 59.9446 14.4075 59.4225 14.4075C58.9005 14.4075 58.4192 14.538 57.9787 14.7991C57.5546 15.0601 57.2038 15.4516 56.9265 15.9736C56.6655 16.4957 56.535 17.1482 56.535 17.9313C56.535 18.698 56.6655 19.3424 56.9265 19.8645C57.2038 20.3865 57.5546 20.7862 57.9787 21.0635C58.4192 21.3245 58.8923 21.4551 59.398 21.4551ZM73.479 24.2936C72.4022 24.2936 71.4479 24.1142 70.6159 23.7553C69.7839 23.3964 69.115 22.907 68.6093 22.2871C68.1199 21.6508 67.8344 20.933 67.7528 20.1336H71.0564C71.1379 20.4273 71.2766 20.7046 71.4724 20.9656C71.6844 21.2104 71.9536 21.4061 72.2799 21.5529C72.6062 21.6998 72.9895 21.7732 73.43 21.7732C73.8705 21.7732 74.2294 21.7161 74.5067 21.6019C74.7841 21.4714 74.988 21.3082 75.1185 21.1125C75.249 20.9004 75.3142 20.6883 75.3142 20.4762C75.3142 20.15 75.2164 19.9053 75.0206 19.7421C74.8248 19.5627 74.5312 19.4158 74.1397 19.3016C73.7644 19.1875 73.3158 19.0651 72.7938 18.9346C72.2717 18.8041 71.7334 18.6573 71.1787 18.4941C70.6241 18.331 70.1183 18.1271 69.6615 17.8824C69.2211 17.6213 68.8622 17.2951 68.5848 16.9035C68.3075 16.512 68.1688 16.0144 68.1688 15.4108C68.1688 14.693 68.3646 14.0486 68.7561 13.4776C69.1477 12.8904 69.7105 12.4254 70.4446 12.0828C71.195 11.7402 72.0923 11.5689 73.1364 11.5689C74.5883 11.5689 75.7466 11.9034 76.6112 12.5722C77.4921 13.2411 78.006 14.1628 78.1528 15.3374H75.0451C74.9635 14.9459 74.7514 14.6441 74.4088 14.432C74.0826 14.2199 73.6502 14.1139 73.1119 14.1139C72.5409 14.1139 72.1004 14.2199 71.7905 14.432C71.4968 14.6278 71.35 14.8888 71.35 15.2151C71.35 15.4271 71.4561 15.6229 71.6681 15.8024C71.8965 15.9655 72.1983 16.1123 72.5735 16.2428C72.9488 16.357 73.3892 16.4712 73.895 16.5854C74.7759 16.7975 75.5671 17.0259 76.2686 17.2706C76.9864 17.499 77.5574 17.8416 77.9815 18.2984C78.4057 18.7551 78.6178 19.424 78.6178 20.3049C78.6341 21.0554 78.4302 21.7324 78.006 22.336C77.5819 22.9396 76.9864 23.4209 76.2197 23.7798C75.4529 24.1224 74.5393 24.2936 73.479 24.2936ZM81.4158 24V11.8626H84.7194V24H81.4158ZM83.0798 10.1007C82.4762 10.1007 81.9868 9.92941 81.6116 9.58682C81.2364 9.22792 81.0488 8.77929 81.0488 8.24094C81.0488 7.70259 81.2364 7.26212 81.6116 6.91953C81.9868 6.56063 82.4762 6.38118 83.0798 6.38118C83.6834 6.38118 84.1729 6.56063 84.5481 6.91953C84.9396 7.26212 85.1354 7.70259 85.1354 8.24094C85.1354 8.77929 84.9396 9.22792 84.5481 9.58682C84.1729 9.92941 83.6834 10.1007 83.0798 10.1007ZM93.0267 24.2936C91.95 24.2936 90.9957 24.1142 90.1637 23.7553C89.3317 23.3964 88.6628 22.907 88.1571 22.2871C87.6677 21.6508 87.3822 20.933 87.3006 20.1336H90.6042C90.6857 20.4273 90.8244 20.7046 91.0202 20.9656C91.2322 21.2104 91.5014 21.4061 91.8277 21.5529C92.154 21.6998 92.5373 21.7732 92.9778 21.7732C93.4183 21.7732 93.7772 21.7161 94.0545 21.6019C94.3318 21.4714 94.5358 21.3082 94.6663 21.1125C94.7968 20.9004 94.862 20.6883 94.862 20.4762C94.862 20.15 94.7642 19.9053 94.5684 19.7421C94.3726 19.5627 94.079 19.4158 93.6875 19.3016C93.3122 19.1875 92.8636 19.0651 92.3416 18.9346C91.8195 18.8041 91.2812 18.6573 90.7265 18.4941C90.1718 18.331 89.6661 18.1271 89.2093 17.8824C88.7689 17.6213 88.41 17.2951 88.1326 16.9035C87.8553 16.512 87.7166 16.0144 87.7166 15.4108C87.7166 14.693 87.9124 14.0486 88.3039 13.4776C88.6955 12.8904 89.2583 12.4254 89.9924 12.0828C90.7428 11.7402 91.6401 11.5689 92.6842 11.5689C94.1361 11.5689 95.2944 11.9034 96.159 12.5722C97.0399 13.2411 97.5538 14.1628 97.7006 15.3374H94.5929C94.5113 14.9459 94.2992 14.6441 93.9566 14.432C93.6304 14.2199 93.198 14.1139 92.6597 14.1139C92.0887 14.1139 91.6482 14.2199 91.3383 14.432C91.0446 14.6278 90.8978 14.8888 90.8978 15.2151C90.8978 15.4271 91.0038 15.6229 91.2159 15.8024C91.4443 15.9655 91.7461 16.1123 92.1213 16.2428C92.4966 16.357 92.937 16.4712 93.4427 16.5854C94.3237 16.7975 95.1149 17.0259 95.8164 17.2706C96.5342 17.499 97.1052 17.8416 97.5293 18.2984C97.9535 18.7551 98.1656 19.424 98.1656 20.3049C98.1819 21.0554 97.978 21.7324 97.5538 22.336C97.1296 22.9396 96.5342 23.4209 95.7675 23.7798C95.0007 24.1224 94.0871 24.2936 93.0267 24.2936Z" fill="#01383D"/>
</svg>
