<?xml version="1.0" standalone="no"?>
<!DOCTYPE svg PUBLIC "-//W3C//DTD SVG 20010904//EN"
 "http://www.w3.org/TR/2001/REC-SVG-20010904/DTD/svg10.dtd">
<svg version="1.0" xmlns="http://www.w3.org/2000/svg"
 width="500.000000pt" height="500.000000pt" viewBox="0 0 500.000000 500.000000"
 preserveAspectRatio="xMidYMid meet">

<g transform="translate(0.000000,500.000000) scale(0.100000,-0.100000)"
fill="#000000" stroke="none">
<path d="M2289 3641 c-42 -13 -68 -30 -81 -54 -10 -16 -14 -115 -18 -370 l-5
-349 -37 -34 c-30 -27 -46 -34 -78 -34 -23 0 -53 6 -68 14 -15 8 -117 105
-227 216 -237 239 -262 260 -320 260 -55 0 -89 -25 -237 -177 -126 -129 -143
-162 -118 -223 7 -16 111 -124 231 -241 121 -116 229 -225 241 -241 41 -59 18
-151 -46 -182 -29 -14 -79 -16 -366 -16 -322 0 -334 -1 -367 -21 -19 -12 -39
-33 -44 -46 -5 -13 -9 -116 -9 -229 l0 -204 34 -38 34 -37 514 -5 513 -5 65
-31 c94 -46 141 -83 200 -163 41 -55 60 -72 84 -76 17 -3 163 -5 325 -3 l294
3 31 40 c76 96 130 145 209 187 l82 43 510 5 c473 5 513 6 539 23 48 32 56 68
56 267 0 204 -8 237 -62 270 -31 19 -50 20 -368 20 -315 0 -337 1 -367 20 -44
26 -67 73 -60 123 5 36 27 62 251 286 l246 247 0 49 0 49 -149 149 -149 150
-56 5 -57 5 -177 -174 c-325 -320 -324 -319 -373 -319 -49 0 -101 26 -121 62
-10 17 -14 109 -18 370 l-5 346 -24 26 c-14 14 -41 30 -60 36 -42 12 -354 12
-392 1z"/>
</g>
</svg>
